<?xml version="1.0" encoding="utf-8"?>
<!-- Generator: Adobe Illustrator 19.0.0, SVG Export Plug-In . SVG Version: 6.00 Build 0)  -->
<svg version="1.1" id="Layer_1" xmlns="http://www.w3.org/2000/svg" xmlns:xlink="http://www.w3.org/1999/xlink" x="0px" y="0px"
	 viewBox="240 200.3 1272.4 212.7" style="enable-background:new 240 200.3 1272.4 212.7;" xml:space="preserve">
<style type="text/css">
	.st0{display:none;}
	.st1{display:inline;}
	.st2{fill:none;stroke:#F1F2F2;stroke-width:5;stroke-miterlimit:10;}
	.st3{fill:none;stroke:#F1F2F2;stroke-width:4;stroke-miterlimit:10;}
	.st4{fill:#FFFFFF;}
</style>
<g id="Layer_2" class="st0">
	<rect id="XMLID_46_" x="240" y="200.2" class="st1" width="1647.3" height="212.7"/>
</g>
<circle id="XMLID_13_" class="st2" cx="346.4" cy="306.6" r="103.3"/>
<line id="XMLID_12_" class="st3" x1="346.4" y1="369.2" x2="346.4" y2="243.9"/>
<line id="XMLID_11_" class="st3" x1="283.7" y1="306.6" x2="409.1" y2="306.6"/>
<line id="XMLID_10_" class="st3" x1="315" y1="337.9" x2="377.8" y2="275.2"/>
<line id="XMLID_8_" class="st3" x1="315" y1="275.2" x2="377.8" y2="337.9"/>
<g id="XMLID_19_">
	<path id="XMLID_20_" class="st4" d="M540.7,230.6H562v151.9h-21.3V230.6z M551.2,230.6h85.2v20.3h-85.2L551.2,230.6L551.2,230.6z
		 M551.2,298.3h73.7v20.3h-73.7L551.2,298.3L551.2,298.3z"/>
	<path id="XMLID_24_" class="st4" d="M683.8,382.5h-21.3V230.6h21.3V382.5z"/>
	<path id="XMLID_26_" class="st4" d="M721.4,230.5h21.3v152h-21.3V230.5z M730.7,298h51.8c4,0,7.6-1,10.8-2.9
		c3.1-1.9,5.6-4.7,7.3-8.3c1.7-3.6,2.6-7.7,2.6-12.4c0-4.7-0.9-8.8-2.6-12.4c-1.7-3.6-4.1-6.4-7.2-8.3c-3.1-1.9-6.7-2.9-10.8-2.9
		h-51.8v-20.3h51c8.8,0,16.5,1.8,23.1,5.4c6.7,3.6,11.8,8.8,15.5,15.4c3.7,6.7,5.5,14.3,5.5,23c0,8.7-1.8,16.4-5.5,23
		c-3.7,6.7-8.9,11.8-15.5,15.4c-6.7,3.6-14.3,5.4-23,5.4h-51V298H730.7z M772.1,313.6l21.2-4.8l38.9,73.8h-25.3L772.1,313.6z"/>
	<path id="XMLID_30_" class="st4" d="M860.9,230.6h21.3v151.9h-21.3V230.6z M871.3,230.6h87.3v20.3h-87.3V230.6z M871.3,296.9h75.8
		v20.3h-75.8V296.9z M871.3,362.3h87.3v20.3h-87.3V362.3z"/>
	<path id="XMLID_36_" class="st4" d="M1023.5,384.1c0,0-3.3-0.7-9.8-2.1c-6.5-1.4-12.7-3.5-18.3-6.3c-5.7-2.8-11-6.3-15.9-10.4
		l13.3-16.3c5.8,5,12.2,8.8,19.1,11.3c7,2.5,14.5,3.8,22.7,3.8c11,0,19.5-2,25.6-6.1s9.1-9.8,9.1-17.3v-0.1c0-5.3-1.4-9.5-4.1-12.6
		c-2.8-3.1-6.3-5.4-10.7-6.9s-10-2.9-16.9-4.1c-0.2-0.1-0.4-0.1-0.7-0.1c-0.3,0-0.5,0-0.7-0.1l-1.6-0.3c-10.2-1.7-18.4-3.7-24.8-5.9
		c-6.4-2.2-11.8-6.2-16.4-12c-4.5-5.8-6.8-14.1-6.8-24.8v-0.1c0-9.4,2.1-17.4,6.3-24.1s10.4-11.7,18.4-15.2
		c8.1-3.5,17.8-5.2,29.2-5.2c5.4,0,10.8,0.6,16,1.8c5.3,1.2,10.4,2.9,15.6,5.3c5.1,2.3,10.2,5.3,15.1,8.8l-12.1,16.9
		c-5.8-4.2-11.5-7.4-17.3-9.6c-5.7-2.1-11.5-3.2-17.3-3.2c-10.4,0-18.4,2.1-24.2,6.2c-5.7,4.1-8.6,10-8.6,17.6v0.1
		c0,5.2,1.5,9.3,4.4,12.3c3,3,6.7,5.2,11.1,6.6c4.4,1.4,10.6,2.9,18.4,4.4c0.3,0.1,0.5,0.1,0.8,0.2c0.2,0,0.5,0.1,0.8,0.2
		c0.3,0.1,0.7,0.1,1.1,0.2c0.4,0.1,0.8,0.1,1.1,0.2c9.2,1.9,16.9,4.1,23,6.7c6.2,2.6,11.3,6.7,15.5,12.5c4.2,5.8,6.2,13.6,6.2,23.6
		v0.2c0,9.3-2.2,17.2-6.6,23.8c-4.4,6.6-10.7,11.6-19.1,15c-8.3,3.4-18.4,5.2-30.1,5.2C1027.2,384.1,1023.5,384.1,1023.5,384.1z"/>
	<path id="XMLID_38_" class="st4" d="M1099.7,230.6h107.2v20.3h-107.2V230.6z M1142.6,243h21.3v139.5h-21.3V243z"/>
	<path id="XMLID_41_" class="st4" d="M1259.8,230.6h18.2l56,151.9h-23l-42.1-122.6l-42.1,122.6h-23L1259.8,230.6z M1229.6,328.9
		h79.9v20.3h-79.9V328.9z"/>
	<path id="XMLID_44_" class="st4" d="M1356.9,230.5h21.3v152h-21.3V230.5z M1366.2,298h51.8c4,0,7.6-1,10.8-2.9
		c3.1-1.9,5.6-4.7,7.3-8.3c1.7-3.6,2.6-7.7,2.6-12.4c0-4.7-0.9-8.8-2.6-12.4c-1.7-3.6-4.1-6.4-7.2-8.3c-3.1-1.9-6.7-2.9-10.8-2.9
		h-51.8v-20.3h51c8.8,0,16.5,1.8,23.1,5.4c6.7,3.6,11.8,8.8,15.5,15.4c3.7,6.7,5.5,14.3,5.5,23c0,8.7-1.8,16.4-5.5,23
		c-3.7,6.7-8.9,11.8-15.5,15.4c-6.7,3.6-14.3,5.4-23,5.4h-51V298H1366.2z M1407.6,313.6l21.2-4.8l38.9,73.8h-25.3L1407.6,313.6z"/>
</g>
</svg>
